<svg width="30" height="30" viewBox="0 0 30 30" fill="none" xmlns="http://www.w3.org/2000/svg">
<rect width="30" height="30" rx="15" fill="#FFA724"/>
<path d="M12.2656 20.9065C12.5365 21.0523 12.8333 21.1252 13.1562 21.1252C13.8333 21.1252 14.3646 20.8284 14.75 20.2346L23.0469 11.5781C23.1719 11.3906 23.2708 11.1979 23.3438 11C23.4167 10.8021 23.4531 10.6094 23.4531 10.4219C23.4531 9.96354 23.2812 9.59375 22.9375 9.3125C22.5938 9.02083 22.2031 8.875 21.7656 8.875C21.1823 8.875 20.6979 9.1875 20.3125 9.8125L13.125 17.1409L10.5312 13.9377C10.3333 13.6877 10.125 13.5107 9.90625 13.4065C9.69792 13.2919 9.45833 13.2346 9.1875 13.2346C8.73958 13.2346 8.35417 13.3961 8.03125 13.719C7.70833 14.0419 7.54688 14.4273 7.54688 14.8752C7.54688 15.2815 7.70833 15.6825 8.03125 16.0784L11.5156 20.2659C11.7552 20.5367 12.0052 20.7502 12.2656 20.9065Z" fill="white"/>
</svg>
